<svg width="195" height="34" viewBox="0 0 195 34" fill="none" xmlns="http://www.w3.org/2000/svg">
<path d="M10.99 33.9438C8.3623 33.9438 6.05919 33.2328 4.08068 31.8107C2.13308 30.3887 0.772856 28.4256 0 25.9216L5.75005 23.5566C6.15193 25.0405 6.80113 26.1534 7.69764 26.8954C8.59416 27.6373 9.69161 28.0083 10.99 28.0083C12.443 28.0083 13.5713 27.5446 14.3751 26.6171C15.1789 25.6897 15.5808 24.3913 15.5808 22.7219V-1.52588e-05H21.8409V22.6756C21.8409 24.5304 21.5472 26.1689 20.9598 27.5909C20.4034 28.9821 19.6305 30.1568 18.6413 31.1152C17.6829 32.0426 16.5391 32.7382 15.2098 33.2019C13.9114 33.6965 12.5048 33.9438 10.99 33.9438Z" fill="#1C4653"/>
<path d="M37.5108 9.73797C39.2729 9.73797 40.8805 10.0471 42.3334 10.6654C43.8173 11.2528 45.0848 12.0875 46.1359 13.1694C47.2179 14.2205 48.0526 15.488 48.6399 16.9719C49.2582 18.4558 49.5674 20.0788 49.5674 21.8409C49.5674 23.603 49.2582 25.226 48.6399 26.7099C48.0526 28.1938 47.2179 29.4767 46.1359 30.5587C45.0848 31.6098 43.8173 32.4445 42.3334 33.0628C40.8805 33.6501 39.2729 33.9438 37.5108 33.9438C35.7487 33.9438 34.1257 33.6501 32.6418 33.0628C31.1888 32.4445 29.9214 31.6098 28.8394 30.5587C27.7883 29.4767 26.9536 28.1938 26.3353 26.7099C25.7479 25.226 25.4542 23.603 25.4542 21.8409C25.4542 20.0788 25.7479 18.4558 26.3353 16.9719C26.9536 15.488 27.7883 14.2205 28.8394 13.1694C29.9214 12.0875 31.1888 11.2528 32.6418 10.6654C34.1257 10.0471 35.7487 9.73797 37.5108 9.73797ZM37.5108 28.3329C38.2837 28.3329 39.0256 28.1938 39.7366 27.9155C40.4786 27.6064 41.1278 27.1736 41.6842 26.6171C42.2407 26.0607 42.6735 25.3806 42.9826 24.5768C43.3227 23.773 43.4927 22.8611 43.4927 21.8409C43.4927 20.8207 43.3227 19.9087 42.9826 19.105C42.6735 18.3012 42.2407 17.6211 41.6842 17.0646C41.1278 16.5082 40.4786 16.0908 39.7366 15.8126C39.0256 15.5035 38.2837 15.3489 37.5108 15.3489C36.707 15.3489 35.9496 15.5035 35.2386 15.8126C34.5276 16.0908 33.8938 16.5082 33.3374 17.0646C32.7809 17.6211 32.3327 18.3012 31.9926 19.105C31.6835 19.9087 31.5289 20.8207 31.5289 21.8409C31.5289 22.8611 31.6835 23.773 31.9926 24.5768C32.3327 25.3806 32.7809 26.0607 33.3374 26.6171C33.8938 27.1736 34.5276 27.6064 35.2386 27.9155C35.9496 28.1938 36.707 28.3329 37.5108 28.3329Z" fill="#1C4653"/>
<path d="M53.0177 10.4799H58.7213V13.4477H59.0923C59.8033 12.3348 60.7617 11.4383 61.9673 10.7581C63.2039 10.078 64.5641 9.73797 66.048 9.73797C67.7792 9.73797 69.2322 10.1399 70.4069 10.9436C71.5817 11.7474 72.4164 12.7366 72.911 13.9114C73.622 12.7676 74.6267 11.7938 75.9251 10.99C77.2235 10.1553 78.8001 9.73797 80.655 9.73797C82.0461 9.73797 83.2518 9.96982 84.272 10.4335C85.2921 10.8663 86.1268 11.4846 86.776 12.2884C87.4561 13.0922 87.9662 14.066 88.3063 15.2098C88.6463 16.3227 88.8164 17.5438 88.8164 18.8731V33.2019H82.7417V19.986C82.7417 16.8946 81.4742 15.3489 78.9393 15.3489C78.1355 15.3489 77.4245 15.5344 76.8062 15.9054C76.1879 16.2454 75.6623 16.7246 75.2295 17.3429C74.8277 17.9302 74.5031 18.6413 74.2558 19.476C74.0394 20.3106 73.9312 21.2071 73.9312 22.1655V33.2019H67.8565V19.986C67.8565 16.8946 66.5272 15.3489 63.8686 15.3489C63.0957 15.3489 62.4156 15.5344 61.8282 15.9054C61.2409 16.2454 60.7462 16.7246 60.3443 17.3429C59.9425 17.9302 59.6333 18.6413 59.4169 19.476C59.2005 20.3106 59.0923 21.2071 59.0923 22.1655V33.2019H53.0177V10.4799Z" fill="#1C4653"/>
<path d="M94.5845 -1.52588e-05H115.637V5.93552H100.845V14.0041H114.153V19.9397H100.845V33.2019H94.5845V-1.52588e-05Z" fill="#00D293"/>
<path d="M129.054 9.73797C130.816 9.73797 132.424 10.0471 133.877 10.6654C135.361 11.2528 136.628 12.0875 137.679 13.1694C138.761 14.2205 139.596 15.488 140.183 16.9719C140.802 18.4558 141.111 20.0788 141.111 21.8409C141.111 23.603 140.802 25.226 140.183 26.7099C139.596 28.1938 138.761 29.4767 137.679 30.5587C136.628 31.6098 135.361 32.4445 133.877 33.0628C132.424 33.6501 130.816 33.9438 129.054 33.9438C127.292 33.9438 125.669 33.6501 124.185 33.0628C122.732 32.4445 121.465 31.6098 120.383 30.5587C119.332 29.4767 118.497 28.1938 117.879 26.7099C117.291 25.226 116.998 23.603 116.998 21.8409C116.998 20.0788 117.291 18.4558 117.879 16.9719C118.497 15.488 119.332 14.2205 120.383 13.1694C121.465 12.0875 122.732 11.2528 124.185 10.6654C125.669 10.0471 127.292 9.73797 129.054 9.73797ZM129.054 28.3329C129.827 28.3329 130.569 28.1938 131.28 27.9155C132.022 27.6064 132.671 27.1736 133.228 26.6171C133.784 26.0607 134.217 25.3806 134.526 24.5768C134.866 23.773 135.036 22.8611 135.036 21.8409C135.036 20.8207 134.866 19.9087 134.526 19.105C134.217 18.3012 133.784 17.6211 133.228 17.0646C132.671 16.5082 132.022 16.0908 131.28 15.8126C130.569 15.5035 129.827 15.3489 129.054 15.3489C128.251 15.3489 127.493 15.5035 126.782 15.8126C126.071 16.0908 125.437 16.5082 124.881 17.0646C124.324 17.6211 123.876 18.3012 123.536 19.105C123.227 19.9087 123.072 20.8207 123.072 21.8409C123.072 22.8611 123.227 23.773 123.536 24.5768C123.876 25.3806 124.324 26.0607 124.881 26.6171C125.437 27.1736 126.071 27.6064 126.782 27.9155C127.493 28.1938 128.251 28.3329 129.054 28.3329Z" fill="#00D293"/>
<path d="M155.772 9.73797C157.534 9.73797 159.142 10.0471 160.595 10.6654C162.079 11.2528 163.346 12.0875 164.397 13.1694C165.479 14.2205 166.314 15.488 166.901 16.9719C167.52 18.4558 167.829 20.0788 167.829 21.8409C167.829 23.603 167.52 25.226 166.901 26.7099C166.314 28.1938 165.479 29.4767 164.397 30.5587C163.346 31.6098 162.079 32.4445 160.595 33.0628C159.142 33.6501 157.534 33.9438 155.772 33.9438C154.01 33.9438 152.387 33.6501 150.903 33.0628C149.45 32.4445 148.183 31.6098 147.101 30.5587C146.05 29.4767 145.215 28.1938 144.597 26.7099C144.009 25.226 143.716 23.603 143.716 21.8409C143.716 20.0788 144.009 18.4558 144.597 16.9719C145.215 15.488 146.05 14.2205 147.101 13.1694C148.183 12.0875 149.45 11.2528 150.903 10.6654C152.387 10.0471 154.01 9.73797 155.772 9.73797ZM155.772 28.3329C156.545 28.3329 157.287 28.1938 157.998 27.9155C158.74 27.6064 159.389 27.1736 159.946 26.6171C160.502 26.0607 160.935 25.3806 161.244 24.5768C161.584 23.773 161.754 22.8611 161.754 21.8409C161.754 20.8207 161.584 19.9087 161.244 19.105C160.935 18.3012 160.502 17.6211 159.946 17.0646C159.389 16.5082 158.74 16.0908 157.998 15.8126C157.287 15.5035 156.545 15.3489 155.772 15.3489C154.968 15.3489 154.211 15.5035 153.5 15.8126C152.789 16.0908 152.155 16.5082 151.599 17.0646C151.042 17.6211 150.594 18.3012 150.254 19.105C149.945 19.9087 149.79 20.8207 149.79 21.8409C149.79 22.8611 149.945 23.773 150.254 24.5768C150.594 25.3806 151.042 26.0607 151.599 26.6171C152.155 27.1736 152.789 27.6064 153.5 27.9155C154.211 28.1938 154.968 28.3329 155.772 28.3329Z" fill="#00D293"/>
<path d="M188.657 30.466H188.286C187.73 31.4243 186.864 32.2435 185.69 32.9236C184.515 33.6038 183.062 33.9438 181.331 33.9438C179.878 33.9438 178.487 33.6501 177.157 33.0628C175.859 32.4445 174.7 31.6098 173.68 30.5587C172.69 29.4767 171.902 28.1938 171.315 26.7099C170.727 25.226 170.434 23.603 170.434 21.8409C170.434 20.0788 170.727 18.4558 171.315 16.9719C171.902 15.488 172.69 14.2205 173.68 13.1694C174.7 12.0875 175.859 11.2528 177.157 10.6654C178.487 10.0471 179.878 9.73797 181.331 9.73797C183.062 9.73797 184.515 10.078 185.69 10.7581C186.864 11.4383 187.73 12.2575 188.286 13.2158H188.657L188.286 9.96982V-1.52588e-05H194.361V33.2019H188.657V30.466ZM182.583 28.3329C183.387 28.3329 184.144 28.1938 184.855 27.9155C185.597 27.6064 186.246 27.1736 186.803 26.6171C187.359 26.0607 187.807 25.3806 188.147 24.5768C188.487 23.773 188.657 22.8611 188.657 21.8409C188.657 20.8207 188.487 19.9087 188.147 19.105C187.807 18.3012 187.359 17.6211 186.803 17.0646C186.246 16.5082 185.597 16.0908 184.855 15.8126C184.144 15.5035 183.387 15.3489 182.583 15.3489C181.779 15.3489 181.006 15.5035 180.264 15.8126C179.553 16.1218 178.919 16.5546 178.363 17.111C177.807 17.6675 177.358 18.3476 177.018 19.1514C176.678 19.9551 176.508 20.8516 176.508 21.8409C176.508 22.8301 176.678 23.7267 177.018 24.5304C177.358 25.3342 177.807 26.0143 178.363 26.5708C178.919 27.1272 179.553 27.56 180.264 27.8692C181.006 28.1783 181.779 28.3329 182.583 28.3329Z" fill="#00D293"/>
</svg>
