<svg width="181" height="50" viewBox="0 0 181 50" fill="none" xmlns="http://www.w3.org/2000/svg">
<path d="M3.15527 40V8.62244H12.7526C17.5439 8.62244 21.3858 10.0686 24.2781 12.9609C27.1997 15.8533 28.6605 19.6367 28.6605 24.3112C28.6605 29.0149 27.1997 32.8129 24.2781 35.7053C21.3858 38.5684 17.5439 40 12.7526 40H3.15527ZM7.18702 12.4789V36.1435H12.7526C16.4045 36.1435 19.2823 35.1064 21.3858 33.032C23.4893 30.9285 24.5411 28.0216 24.5411 24.3112C24.5411 20.63 23.4893 17.7377 21.3858 15.6342C19.2823 13.5307 16.4045 12.4789 12.7526 12.4789H7.18702Z" fill="#383838"/>
<path d="M37.9688 11.1204C37.9688 11.9092 37.6913 12.5811 37.1362 13.1362C36.5811 13.6913 35.9091 13.9689 35.1203 13.9689C34.3315 13.9689 33.6595 13.6913 33.1044 13.1362C32.5493 12.5811 32.2718 11.9092 32.2718 11.1204C32.2718 10.3315 32.5493 9.65959 33.1044 9.10449C33.6595 8.5494 34.3315 8.27185 35.1203 8.27185C35.9091 8.27185 36.5811 8.5494 37.1362 9.10449C37.6913 9.65959 37.9688 10.3315 37.9688 11.1204ZM37.1362 18.5265V40H33.1044V18.5265H37.1362Z" fill="#383838"/>
<path d="M42.383 18.5265H46.2395V21.5065H46.4147C47.0283 20.4547 47.9632 19.5783 49.2194 18.8771C50.5049 18.1759 51.8342 17.8253 53.2074 17.8253C55.8368 17.8253 57.8526 18.5849 59.255 20.1042C60.6866 21.5942 61.4023 23.7269 61.4023 26.5024V40H57.3706V26.7653C57.2829 23.2594 55.5154 21.5065 52.068 21.5065C50.4611 21.5065 49.1172 22.1639 48.0362 23.4786C46.9552 24.764 46.4147 26.3125 46.4147 28.1238V40H42.383V18.5265Z" fill="#383838"/>
<path d="M75.7761 40.7011C72.6208 40.7011 70.0206 39.6202 67.9755 37.4582C65.9304 35.2963 64.9079 32.5646 64.9079 29.2632C64.9079 25.9911 65.9012 23.274 67.8878 21.1121C69.8745 18.9209 72.4163 17.8253 75.5131 17.8253C78.6976 17.8253 81.2248 18.8625 83.0946 20.9368C84.9936 22.9819 85.9431 25.8596 85.9431 29.57L85.8992 30.0082H69.0273C69.0857 32.1118 69.7869 33.8063 71.1308 35.0917C72.4747 36.3772 74.0816 37.02 75.9513 37.02C78.5223 37.02 80.5382 35.7345 81.999 33.1635L85.5925 34.9165C84.6284 36.7278 83.2845 38.1448 81.5607 39.1673C79.8662 40.1899 77.938 40.7011 75.7761 40.7011ZM69.334 26.6777H81.6484C81.5315 25.1877 80.918 23.9606 79.8078 22.9965C78.7268 22.0032 77.2661 21.5065 75.4255 21.5065C73.9063 21.5065 72.5916 21.974 71.4814 22.9089C70.4004 23.8438 69.6846 25.1 69.334 26.6777Z" fill="#383838"/>
<path d="M96.2472 14.2318V21.5065H108.825V27.1159H96.2472V34.3906H110.227V40H90.3311V8.62244H110.227V14.2318H96.2472Z" fill="#2681FF"/>
<path d="M127.558 37.7211H127.207C126.535 38.5392 125.717 39.2404 124.753 39.8247C123.818 40.409 122.606 40.7011 121.116 40.7011C120.006 40.7011 118.954 40.5112 117.961 40.1314C116.997 39.7808 116.149 39.2842 115.419 38.6414C114.689 37.9987 114.119 37.2245 113.71 36.3188C113.301 35.4131 113.096 34.4198 113.096 33.3388C113.096 32.2286 113.315 31.2353 113.754 30.3588C114.192 29.4531 114.805 28.6789 115.594 28.0362C116.383 27.3934 117.303 26.9114 118.355 26.59C119.436 26.2394 120.605 26.0641 121.861 26.0641C123.263 26.0641 124.417 26.181 125.323 26.4147C126.229 26.6192 126.974 26.8383 127.558 27.0721V26.4147C127.558 25.2753 127.105 24.3404 126.199 23.61C125.294 22.8504 124.169 22.4706 122.825 22.4706C120.838 22.4706 119.158 23.3033 117.785 24.9685L113.622 22.12C115.901 19.2569 119.012 17.8253 122.957 17.8253C126.287 17.8253 128.829 18.6142 130.582 20.1918C132.335 21.7402 133.211 24.0483 133.211 27.1159V40H127.558V37.7211ZM127.558 31.2791C126.886 30.9577 126.185 30.7094 125.454 30.5341C124.753 30.3296 123.979 30.2274 123.132 30.2274C121.759 30.2274 120.692 30.5341 119.933 31.1476C119.202 31.732 118.837 32.4623 118.837 33.3388C118.837 34.2153 119.188 34.9165 119.889 35.4423C120.619 35.9682 121.452 36.2311 122.387 36.2311C123.146 36.2311 123.848 36.0997 124.49 35.8367C125.133 35.5446 125.674 35.1794 126.112 34.7412C126.579 34.2737 126.93 33.7478 127.164 33.1635C127.426 32.55 127.558 31.9219 127.558 31.2791Z" fill="#2681FF"/>
<path d="M146.063 40.7011C144.661 40.7011 143.405 40.5258 142.295 40.1753C141.214 39.8247 140.264 39.3718 139.446 38.8167C138.657 38.2324 137.985 37.5751 137.43 36.8447C136.875 36.0851 136.451 35.3255 136.159 34.5659L141.287 32.3747C141.783 33.4849 142.441 34.3175 143.259 34.8726C144.106 35.3985 145.041 35.6614 146.063 35.6614C147.115 35.6614 147.948 35.4715 148.561 35.0917C149.175 34.7119 149.482 34.2591 149.482 33.7332C149.482 33.1489 149.219 32.6815 148.693 32.3309C148.196 31.9511 147.32 31.6151 146.063 31.3229L143.04 30.6656C142.368 30.5195 141.666 30.2858 140.936 29.9644C140.235 29.643 139.592 29.234 139.008 28.7374C138.424 28.2407 137.941 27.6418 137.562 26.9406C137.182 26.2394 136.992 25.4214 136.992 24.4865C136.992 23.4347 137.211 22.4998 137.649 21.6818C138.117 20.8638 138.745 20.1772 139.534 19.6221C140.323 19.0378 141.243 18.5996 142.295 18.3074C143.376 17.986 144.53 17.8253 145.757 17.8253C147.802 17.8253 149.628 18.2344 151.235 19.0524C152.841 19.8412 154.025 21.1121 154.784 22.865L149.832 24.8809C149.423 24.0337 148.824 23.4201 148.035 23.0403C147.247 22.6605 146.458 22.4706 145.669 22.4706C144.851 22.4706 144.135 22.6459 143.522 22.9965C142.908 23.3179 142.601 23.7415 142.601 24.2674C142.601 24.764 142.85 25.1584 143.346 25.4506C143.872 25.7428 144.573 26.0057 145.45 26.2394L148.737 27.0282C150.928 27.5541 152.549 28.4014 153.601 29.57C154.682 30.7094 155.222 32.0679 155.222 33.6456C155.222 34.5805 155.003 35.4715 154.565 36.3188C154.127 37.166 153.499 37.9257 152.681 38.5976C151.892 39.2404 150.928 39.7516 149.788 40.1314C148.678 40.5112 147.437 40.7011 146.063 40.7011Z" fill="#2681FF"/>
<path d="M165.495 38.9482L156.467 18.5265H162.997L168.431 31.5421H168.738L173.953 18.5265H180.351L166.897 49.4658H160.718L165.495 38.9482Z" fill="#2681FF"/>
</svg>
